<svg width="192" xmlns="http://www.w3.org/2000/svg" height="192" id="screenshot-3bd2cdf9-8978-8076-8007-77d7ca0af423" viewBox="-48 -48 192 192" xmlns:xlink="http://www.w3.org/1999/xlink" fill="none" version="1.1"><g id="shape-3bd2cdf9-8978-8076-8007-77d7ca0af423"><g class="frame-container-wrapper"><g class="frame-container-blur"><g class="frame-container-shadows"><g fill="none"><g class="fills" id="fills-3bd2cdf9-8978-8076-8007-77d7ca0af423"><rect rx="0" ry="0" x="0" y="0" width="96" height="96" transform="matrix(1.000000, 0.000000, 0.000000, 1.000000, 0.000000, 0.000000)" class="frame-background"/></g><g class="frame-children"><g id="shape-3bd2cdf9-8978-8076-8007-77d7ca11ba19"><defs><linearGradient id="fill-color-gradient-render-2-0" x1="0.5" y1="0" x2="0.5" y2="1" gradientTransform=""><stop offset="0" stop-color="#080a0c" stop-opacity="1"/><stop offset="1" stop-color="#080a0c" stop-opacity="0"/></linearGradient><pattern patternUnits="userSpaceOnUse" x="0" y="0" width="96" height="96" patternTransform="matrix(1.000000, 0.000000, 0.000000, 1.000000, 0.000000, 0.000000)" id="fill-0-render-2"><g><rect width="96" height="96" style="fill: url(&quot;#fill-color-gradient-render-2-0&quot;);"/></g></pattern></defs><g class="fills" id="fills-3bd2cdf9-8978-8076-8007-77d7ca11ba19"><path d="M48,0.0000152587890625C74.4654541015625,0.0000152587890625,95.95700073242188,21.46509552001953,95.99996948242188,47.92053985595703C96,47.93377685546875,96,47.947021484375,96,47.96026611328125C96.00003051757812,47.9735107421875,96.00003051757812,47.98675537109375,96.00003051757812,48C96.00003051757812,74.4654312133789,74.53494262695312,95.95697021484375,48.0794677734375,95.99993133544922C48.052978515625,95.99996948242188,48.0264892578125,96,48,96C21.534576416015625,96,0.04302978515625,74.534912109375,0.00006103515625,48.07946014404297C0.000030517578125,48.06622314453125,0.000030517578125,48.052978515625,0.000030517578125,48.03973388671875C-5.684341886080802e-14,48.0264892578125,-5.684341886080802e-14,48.01324462890625,-5.684341886080802e-14,48C-5.684341886080802e-14,21.534576416015625,21.465087890625,0.04302978515625,47.9205322265625,0.0000762939453125M96.00003051757812,48C96,48,95.99996948242188,48,95.99993896484375,48C95.98672485351562,48,95.9735107421875,48.00000762939453,95.96029663085938,48.00001525878906C95.94705200195312,48.000030517578125,95.933837890625,48.00004577636719,95.92059326171875,48.00006103515625M48,-0.00006103515625C48,-0.000030517578125,48,-0.0000152587890625,48,0.0000152587890625M48,0.000091552734375C48,0.0133209228515625,48,0.0265350341796875,48.000030517578125,0.0397491455078125C48.000030517578125,0.0529937744140625,48.000030517578125,0.06622314453125,48.00006103515625,0.0794525146484375M0.0794677734375,48.00006103515625C0.053009033203125,48.000022888183594,0.02655029296875,48,0.000091552734375,48C0.00006103515625,48,0.000030517578125,48,-5.684341886080802e-14,48M48.00006103515625,95.92061614990234C48.042938232421875,69.4916000366211,69.49154663085938,48.04296875,95.920654296875,47.99993896484375C69.49160766601562,47.957061767578125,48.04296875,26.508453369140625,48.00006103515625,0.0794525146484375C47.957061767578125,26.508399963378906,26.50848388671875,47.95702362060547,0.0794677734375,47.99993896484375C26.378936767578125,48.04277038574219,47.74664306640625,69.28182983398438,47.997772216796875,95.53229522705078C47.999053955078125,95.66590881347656,47.999786376953125,95.79965209960938,48.000030517578125,95.90082550048828C48.000030517578125,95.9075698852539,48.00006103515625,95.91416931152344,48.00006103515625,95.92061614990234C48.000030517578125,95.9470443725586,48,95.97348022460938,48,95.99991607666016C48,95.99993896484375,48,95.99996948242188,48,96" fill="url(#fill-0-render-2)"/></g></g></g></g></g></g></g></g></svg>
